<svg xmlns="http://www.w3.org/2000/svg" x="0px" y="0px"
width="48" height="48"
viewBox="0 0 226 226"
style=" fill:#000000;"><defs><linearGradient x1="31.0185" y1="31.0185" x2="194.98621" y2="194.98621" gradientUnits="userSpaceOnUse" id="color-1_aWVmWoC9nEgp_gr1"><stop offset="0" stop-color="#e74c3c"></stop><stop offset="1" stop-color="#e74c3c"></stop></linearGradient></defs><g fill="none" fill-rule="nonzero" stroke="none" stroke-width="1" stroke-linecap="butt" stroke-linejoin="miter" stroke-miterlimit="10" stroke-dasharray="" stroke-dashoffset="0" font-family="none" font-weight="none" font-size="none" text-anchor="none" style="mix-blend-mode: normal"><path d="M0,226v-226h226v226z" fill="none"></path><g><path d="M188.33333,28.25h-150.66667c-5.17917,0 -9.41667,4.2375 -9.41667,9.41667v75.33333v75.33333c0,5.17917 4.2375,9.41667 9.41667,9.41667h150.66667c5.17917,0 9.41667,-4.2375 9.41667,-9.41667v-75.33333v-75.33333c0,-5.17917 -4.2375,-9.41667 -9.41667,-9.41667z" fill="url(#color-1_aWVmWoC9nEgp_gr1)"></path><path d="M174.20833,127.13442c0,3.09338 -1.01229,6.21029 -3.09337,8.814c-4.87312,6.09258 -13.76246,7.07663 -19.85504,2.20821l-38.25992,-30.60887l-38.25992,30.60887c-6.09258,4.87312 -14.98192,3.88438 -19.85504,-2.20821c-4.87313,-6.09729 -3.87967,-14.98192 2.20821,-19.85504l47.08333,-37.66667c5.16033,-4.1245 12.4865,-4.1245 17.64683,0l47.08333,37.66667c3.48888,2.79204 5.30158,6.89771 5.30158,11.04104z" fill="#e74c3c" opacity="0.05"></path><path d="M171.85417,127.13442c0,2.58017 -0.84279,5.17446 -2.58017,7.345c-4.06329,5.07558 -11.4695,5.89954 -16.54508,1.83625l-39.72892,-31.78596l-39.72892,31.78596c-5.07558,4.06329 -12.48179,3.23933 -16.54508,-1.83625c-4.06329,-5.08029 -3.23463,-12.48179 1.83625,-16.54508l47.08333,-37.66667c4.29871,-3.43708 10.40542,-3.43708 14.70883,0l47.08333,37.66667c2.90504,2.32592 4.41642,5.74417 4.41642,9.20008z" fill="#e74c3c" opacity="0.07"></path><path d="M169.5,127.12971c0,2.06225 -0.67329,4.13863 -2.06225,5.876c-3.24875,4.05858 -9.17183,4.71775 -13.23512,1.469l-41.19792,-32.95833l-41.19792,32.95833c-4.06329,3.24875 -9.98638,2.58958 -13.23513,-1.469c-3.25346,-4.06329 -2.58958,-9.98637 1.469,-13.23512l47.08333,-37.66667c3.43708,-2.74967 8.32904,-2.74967 11.76613,0l47.08333,37.66667c2.3165,1.85979 3.52654,4.60004 3.52654,7.35912z" fill="#ffffff"></path></g></g></svg>